<svg width="1920" height="234" viewBox="0 0 1920 234" fill="none" xmlns="http://www.w3.org/2000/svg">
<path d="M0 161L45.7 172.7C91.3 184.3 182.7 207.7 274.2 220.3C365.7 233 457.3 235 548.8 232.8C640.3 230.7 731.7 224.3 823 218.2C914.3 212 1005.7 206 1097 205.2C1188.3 204.3 1279.7 208.7 1371.2 202.3C1462.7 196 1554.3 179 1645.8 176.5C1737.3 174 1828.7 186 1874.3 192L1920 198V0H1874.3C1828.7 0 1737.3 0 1645.8 0C1554.3 0 1462.7 0 1371.2 0C1279.7 0 1188.3 0 1097 0C1005.7 0 914.3 0 823 0C731.7 0 640.3 0 548.8 0C457.3 0 365.7 0 274.2 0C182.7 0 91.3 0 45.7 0H0V161Z" fill="#FFF"/>
<path d="M0 198L45.7 192.5C91.3 187 182.7 176 274.2 169C365.7 162 457.3 159 548.8 160.8C640.3 162.7 731.7 169.3 823 168C914.3 166.7 1005.7 157.3 1097 152.7C1188.3 148 1279.7 148 1371.2 156C1462.7 164 1554.3 180 1645.8 183C1737.3 186 1828.7 176 1874.3 171L1920 166V0H1874.3C1828.7 0 1737.3 0 1645.8 0C1554.3 0 1462.7 0 1371.2 0C1279.7 0 1188.3 0 1097 0C1005.7 0 914.3 0 823 0C731.7 0 640.3 0 548.8 0C457.3 0 365.7 0 274.2 0C182.7 0 91.3 0 45.7 0H0V198Z" fill="#F2C8CC"/>
<path d="M0 149L45.7 149.7C91.3 150.3 182.7 151.7 274.2 147C365.7 142.3 457.3 131.7 548.8 128C640.3 124.3 731.7 127.7 823 129.5C914.3 131.3 1005.7 131.7 1097 132.5C1188.3 133.3 1279.7 134.7 1371.2 128C1462.7 121.3 1554.3 106.7 1645.8 108.2C1737.3 109.7 1828.7 127.3 1874.3 136.2L1920 145V0H1874.3C1828.7 0 1737.3 0 1645.8 0C1554.3 0 1462.7 0 1371.2 0C1279.7 0 1188.3 0 1097 0C1005.7 0 914.3 0 823 0C731.7 0 640.3 0 548.8 0C457.3 0 365.7 0 274.2 0C182.7 0 91.3 0 45.7 0H0V149Z" fill="#E29CA1"/>
<path d="M0 96L45.7 98.7C91.3 101.3 182.7 106.7 274.2 109C365.7 111.3 457.3 110.7 548.8 103.5C640.3 96.3 731.7 82.7 823 77.2C914.3 71.7 1005.7 74.3 1097 74.3C1188.3 74.3 1279.7 71.7 1371.2 69.2C1462.7 66.7 1554.3 64.3 1645.8 62.2C1737.3 60 1828.7 58 1874.3 57L1920 56V0H1874.3C1828.7 0 1737.3 0 1645.8 0C1554.3 0 1462.7 0 1371.2 0C1279.7 0 1188.3 0 1097 0C1005.7 0 914.3 0 823 0C731.7 0 640.3 0 548.8 0C457.3 0 365.7 0 274.2 0C182.7 0 91.3 0 45.7 0H0V96Z" fill="#CF7077"/>
<path d="M0 31L45.7 31.5C91.3 32 182.7 33 274.2 33.3C365.7 33.7 457.3 33.3 548.8 36.3C640.3 39.3 731.7 45.7 823 51.3C914.3 57 1005.7 62 1097 57.7C1188.3 53.3 1279.7 39.7 1371.2 37.7C1462.7 35.7 1554.3 45.3 1645.8 49C1737.3 52.7 1828.7 50.3 1874.3 49.2L1920 48V0H1874.3C1828.7 0 1737.3 0 1645.8 0C1554.3 0 1462.7 0 1371.2 0C1279.7 0 1188.3 0 1097 0C1005.7 0 914.3 0 823 0C731.7 0 640.3 0 548.8 0C457.3 0 365.7 0 274.2 0C182.7 0 91.3 0 45.7 0H0V31Z" fill="#B8414E"/>
</svg>
