<svg width="1920" height="242" viewBox="0 0 1920 242" fill="none" xmlns="http://www.w3.org/2000/svg">
<path d="M0 32L45.7 31.2C91.3 30.3 182.7 28.7 274.2 30.2C365.7 31.7 457.3 36.3 548.8 30.3C640.3 24.3 731.7 7.70002 823 2.20002C914.3 -3.29998 1005.7 2.30002 1097 10.7C1188.3 19 1279.7 30 1371.2 31.3C1462.7 32.7 1554.3 24.3 1645.8 24C1737.3 23.7 1828.7 31.3 1874.3 35.2L1920 39V242H1874.3C1828.7 242 1737.3 242 1645.8 242C1554.3 242 1462.7 242 1371.2 242C1279.7 242 1188.3 242 1097 242C1005.7 242 914.3 242 823 242C731.7 242 640.3 242 548.8 242C457.3 242 365.7 242 274.2 242C182.7 242 91.3 242 45.7 242H0V32Z" fill="#FFF"/>
<path d="M0 88L45.7 92.2C91.3 96.3 182.7 104.7 274.2 102.5C365.7 100.3 457.3 87.7 548.8 84.3C640.3 81 731.7 87 823 90.5C914.3 94 1005.7 95 1097 89.8C1188.3 84.7 1279.7 73.3 1371.2 75.3C1462.7 77.3 1554.3 92.7 1645.8 89C1737.3 85.3 1828.7 62.7 1874.3 51.3L1920 40V242H1874.3C1828.7 242 1737.3 242 1645.8 242C1554.3 242 1462.7 242 1371.2 242C1279.7 242 1188.3 242 1097 242C1005.7 242 914.3 242 823 242C731.7 242 640.3 242 548.8 242C457.3 242 365.7 242 274.2 242C182.7 242 91.3 242 45.7 242H0V88Z" fill="#F2C8CC"/>
<path d="M0 80L45.7 87C91.3 94 182.7 108 274.2 113.3C365.7 118.7 457.3 115.3 548.8 119.8C640.3 124.3 731.7 136.7 823 136.3C914.3 136 1005.7 123 1097 118.2C1188.3 113.3 1279.7 116.7 1371.2 121.2C1462.7 125.7 1554.3 131.3 1645.8 134.2C1737.3 137 1828.7 137 1874.3 137H1920V242H1874.3C1828.7 242 1737.3 242 1645.8 242C1554.3 242 1462.7 242 1371.2 242C1279.7 242 1188.3 242 1097 242C1005.7 242 914.3 242 823 242C731.7 242 640.3 242 548.8 242C457.3 242 365.7 242 274.2 242C182.7 242 91.3 242 45.7 242H0V80Z" fill="#E29CA1"/>
<path d="M0 133L45.7 133.7C91.3 134.3 182.7 135.7 274.2 135.3C365.7 135 457.3 133 548.8 137.3C640.3 141.7 731.7 152.3 823 158C914.3 163.7 1005.7 164.3 1097 157.7C1188.3 151 1279.7 137 1371.2 136.8C1462.7 136.7 1554.3 150.3 1645.8 155.3C1737.3 160.3 1828.7 156.7 1874.3 154.8L1920 153V242H1874.3C1828.7 242 1737.3 242 1645.8 242C1554.3 242 1462.7 242 1371.2 242C1279.7 242 1188.3 242 1097 242C1005.7 242 914.3 242 823 242C731.7 242 640.3 242 548.8 242C457.3 242 365.7 242 274.2 242C182.7 242 91.3 242 45.7 242H0V133Z" fill="#CF7077"/>
<path d="M0 190L45.7 188.8C91.3 187.7 182.7 185.3 274.2 181.8C365.7 178.3 457.3 173.7 548.8 177.2C640.3 180.7 731.7 192.3 823 195C914.3 197.7 1005.7 191.3 1097 191.3C1188.3 191.3 1279.7 197.7 1371.2 195.3C1462.7 193 1554.3 182 1645.8 182.5C1737.3 183 1828.7 195 1874.3 201L1920 207V242H1874.3C1828.7 242 1737.3 242 1645.8 242C1554.3 242 1462.7 242 1371.2 242C1279.7 242 1188.3 242 1097 242C1005.7 242 914.3 242 823 242C731.7 242 640.3 242 548.8 242C457.3 242 365.7 242 274.2 242C182.7 242 91.3 242 45.7 242H0V190Z" fill="#B8414E"/>
</svg>
